# xmcd
#
# Track frame offsets:
#   150
#   18662
#   28021
#   44571
#   62051
#   79080
#   91477
#   109577
#   122395
#   137456
#   155884
#   175047
#   190040
#   200086
#   213262
#   225161
#   238058
#   252529
#   265350
#   280032
#   294687
#
# Disc length: 4133 seconds
#
# Revision: 0
# Processed by: cddbd v1.5.1PL0 Copyright (c) Steve Scherf et al.
# Submitted via: Media_Universe 3.0
#
DISCID=2d102315
DTITLE=George Strait - George Strait and Something Special
DYEAR=1900
DGENRE=Country
TTITLE0=If You Can Do Anything Else
TTITLE1=Dont Make Me Come Over There And Love You
TTITLE2=Looking Out My Window Through Pain
TTITLE3=Go On
TTITLE4=If Its Gonna Rain
TTITLE5=Home Improvement
TTITLE6=The Nights Just Right For Love
TTITLE7=Youre Stronger Than Me
TTITLE8=Which Side Of The Glass
TTITLE9=She Took The Wind From His Sails
TTITLE10=I Can Still Make Cheyenne
TTITLE11=Youre Something Special To Me
TTITLE12=Last Time The First Time
TTITLE13=Havent You Heard
TTITLE14=In Too Deep
TTITLE15=Blue Is Not A Word
TTITLE16=You Still Got This Ol Redneck Feeling Blue 
TTITLE17=The Chair
TTITLE18=Dance Time In Texas
TTITLE19=Lefty's Gone
TTITLE20=I've Seen That Look On Me (A Thousand Times)
EXTD=
EXTT0=
EXTT1=
EXTT2=
EXTT3=
EXTT4=
EXTT5=
EXTT6=
EXTT7=
EXTT8=
EXTT9=
EXTT10=
EXTT11=
EXTT12=
EXTT13=
EXTT14=
EXTT15=
EXTT16=
EXTT17=
EXTT18=
EXTT19=
EXTT20=
PLAYORDER=
